<?xml version="1.0" standalone="no"?>
<!DOCTYPE svg PUBLIC "-//W3C//DTD SVG 20010904//EN"
 "http://www.w3.org/TR/2001/REC-SVG-20010904/DTD/svg10.dtd">
<svg version="1.0" xmlns="http://www.w3.org/2000/svg"
 width="564.000000pt" height="1003.000000pt" viewBox="0 0 564.000000 1003.000000"
 preserveAspectRatio="xMidYMid meet">

<g transform="translate(0.000000,1003.000000) scale(0.100000,-0.100000)"
fill="#000000" stroke="none">
<path d="M0 5015 l0 -5015 2820 0 2820 0 0 5015 0 5015 -2820 0 -2820 0 0
-5015z m2663 3238 c7 -16 22 -54 32 -85 18 -53 22 -58 50 -59 28 0 28 -1 7 -9
-12 -5 -29 -7 -39 -3 -14 5 -15 1 -9 -28 4 -19 9 -53 13 -76 3 -24 10 -43 14
-43 5 0 9 -8 9 -17 -1 -21 -29 -74 -30 -55 0 6 -8 13 -17 13 -17 1 -17 2 0 6
21 5 21 9 2 126 -8 51 -17 117 -20 146 -6 58 -24 105 -25 64 0 -20 -5 -23 -41
-23 -36 0 -40 2 -37 23 2 17 11 23 38 26 29 3 32 5 15 11 -19 8 -19 9 2 9 15
1 27 -8 36 -26z m-40 -70 c-7 -2 -19 -2 -25 0 -7 3 -2 5 12 5 14 0 19 -2 13
-5z m-86 -133 c-7 -58 -15 -110 -20 -117 -4 -6 -4 -19 0 -28 4 -13 2 -16 -8
-13 -8 3 -16 13 -17 24 -2 10 -14 30 -27 44 -21 24 -39 60 -30 60 2 0 12 -14
21 -31 12 -25 18 -29 25 -18 14 22 11 59 -5 59 -21 0 -25 22 -8 39 10 10 11
16 3 19 -17 6 -3 22 19 22 11 0 22 12 29 32 22 61 30 17 18 -92z m279 -8 c-12
-12 -18 8 -10 35 l8 28 4 -28 c2 -16 1 -31 -2 -35z m-393 18 c-3 -11 -9 -20
-14 -20 -7 0 -7 18 0 48 1 2 5 1 10 -2 5 -3 7 -15 4 -26z m331 12 c-7 -4 -14
-16 -17 -27 -4 -15 -5 -14 -6 8 -1 20 4 27 17 27 11 0 13 -3 6 -8z m-197 -168
c-3 -3 -12 -4 -19 -1 -8 3 -5 6 6 6 11 1 17 -2 13 -5z m76 -1 c-7 -2 -19 -2
-25 0 -7 3 -2 5 12 5 14 0 19 -2 13 -5z m247 -17 c0 -2 -8 -10 -17 -17 -16
-13 -17 -12 -4 4 13 16 21 21 21 13z m93 -7 c42 -22 67 -52 67 -81 0 -21 -4
-27 -12 -21 -7 4 -20 8 -28 10 -71 10 -79 14 -85 43 -8 35 -22 39 -28 8 -4
-20 -4 -19 -6 4 -1 27 0 28 67 47 2 1 13 -4 25 -10z m-268 -74 c3 -27 8 -70
11 -93 2 -24 9 -52 14 -63 6 -10 9 -22 8 -26 -1 -4 4 -27 11 -50 l12 -43 65 0
c56 0 65 2 60 16 -5 12 0 15 21 12 22 -3 27 -9 30 -39 4 -38 -12 -54 -42 -43
-11 4 -12 11 -5 24 8 16 2 17 -73 19 l-82 2 0 -71 c0 -38 3 -70 7 -70 5 0 8
-9 8 -21 0 -12 -4 -17 -11 -14 -7 5 -8 -6 -5 -32 4 -29 4 -32 -3 -13 -9 24 -9
24 -10 3 -1 -28 -17 -31 -17 -3 0 11 4 20 9 20 5 0 5 6 -1 13 -10 12 -19 106
-26 285 -2 51 -6 95 -9 98 -3 3 -3 22 0 43 3 23 1 41 -6 45 -8 5 -8 13 -1 27
6 10 8 19 5 19 -4 0 -3 5 1 11 11 18 22 -4 29 -56z m-154 -21 c-2 -38 -4 -96
-6 -129 -10 -221 -19 -321 -29 -327 -6 -4 26 -8 72 -8 64 0 82 -3 82 -14 0 -8
6 -17 13 -19 6 -3 -34 -6 -90 -6 l-102 -1 -4 -27 c-2 -17 -5 -10 -6 20 -1 32
3 47 12 47 8 0 9 3 1 8 -15 10 -24 51 -13 58 13 8 11 64 -2 64 -8 0 -7 5 1 15
20 24 24 104 5 111 -20 8 -19 48 1 68 8 9 16 31 17 50 2 19 5 37 8 40 3 3 4
24 3 46 -1 24 2 37 8 34 5 -3 9 2 8 12 -3 30 -1 36 13 31 8 -3 11 -24 8 -73z
m272 39 c-7 -2 -21 -2 -30 0 -10 3 -4 5 12 5 17 0 24 -2 18 -5z m-460 -14 c23
-13 37 -28 37 -43 0 -4 -8 2 -18 14 -13 15 -29 22 -55 22 -38 0 -97 -28 -105
-50 -2 -7 13 -1 33 13 58 39 126 29 124 -18 -1 -17 -2 -18 -6 -4 -6 24 -18 21
-31 -8 -9 -19 -20 -25 -44 -26 -80 -4 -83 -3 -80 15 2 12 -1 15 -8 11 -18 -11
4 26 27 47 38 35 90 46 126 27z m411 5 c9 -3 16 -16 16 -28 0 -15 3 -17 9 -7
7 11 9 11 14 0 3 -9 6 -7 7 6 1 18 1 19 11 2 13 -23 3 -37 -27 -37 -17 0 -24
6 -24 19 0 14 -8 21 -27 23 -31 4 -44 28 -15 28 11 0 27 -3 36 -6z m-294 -90
c0 -8 -4 -14 -10 -14 -5 0 -10 -9 -10 -20 0 -15 -7 -20 -26 -20 -22 0 -25 4
-22 27 2 19 10 29 28 34 25 7 25 7 -3 8 -16 1 -26 5 -22 10 8 14 65 -8 65 -25z
m-100 -99 c-7 -8 -17 -15 -23 -15 -6 0 -2 7 9 15 25 19 30 19 14 0z m718 -50
c16 -13 31 -23 33 -21 2 3 4 -9 5 -25 1 -23 -3 -28 -15 -25 -9 3 -33 8 -54 12
-28 5 -42 14 -53 35 -15 29 -34 39 -34 17 0 -6 -3 -8 -6 -5 -4 4 -1 13 6 22
20 24 84 19 118 -10z m-843 -77 c30 -13 45 -56 24 -69 -8 -5 -17 -3 -21 4 -6
9 -12 7 -22 -6 -11 -14 -31 -20 -71 -22 -55 -4 -57 -3 -50 18 3 12 7 29 9 37
3 17 62 50 88 50 9 0 29 -5 43 -12z m1012 -48 c65 -13 73 -21 73 -83 0 -24 -2
-26 -19 -17 -29 15 -62 12 -103 -9 l-37 -18 -5 26 c-3 14 -8 52 -11 84 l-7 59
24 -15 c13 -9 51 -21 85 -27z m-127 26 c0 -2 -8 -10 -17 -17 -16 -13 -17 -12
-4 4 13 16 21 21 21 13z m298 -161 c11 -49 35 -153 52 -230 17 -77 38 -168 46
-202 9 -34 16 -78 17 -97 1 -20 5 -36 8 -36 10 0 31 -109 23 -121 -4 -7 -3 -9
3 -6 16 10 36 -102 22 -120 -9 -10 -9 -12 2 -8 20 8 44 -102 27 -122 -8 -10
-8 -12 3 -8 11 4 24 -36 58 -182 112 -489 277 -1127 461 -1783 26 -94 38 -155
35 -175 -4 -18 -3 -25 2 -18 6 9 12 0 20 -27 7 -27 7 -40 0 -40 -6 0 -3 -8 6
-18 13 -14 14 -21 5 -30 -9 -9 -9 -12 0 -12 23 0 58 -109 177 -544 39 -144 45
-174 35 -195 -9 -20 -13 -23 -20 -11 -4 8 -10 29 -13 45 -2 17 -14 52 -26 78
-12 26 -23 59 -25 74 -6 42 -17 63 -33 63 -9 0 -11 5 -6 13 10 16 4 56 -14 91
-12 22 -17 26 -24 15 -7 -12 -9 -11 -9 1 0 9 5 21 12 28 17 17 -8 93 -32 99
-18 5 -37 50 -25 61 3 3 5 -2 5 -11 0 -9 4 -19 10 -22 19 -11 8 74 -12 91 -14
14 -18 14 -19 3 0 -8 -7 6 -14 31 -16 50 -13 67 3 21 6 -17 16 -31 23 -31 9 0
9 3 0 14 -6 8 -11 18 -10 22 4 22 -2 55 -9 50 -4 -2 -8 3 -9 12 -1 18 -4 32
-22 100 -13 46 -36 60 -25 15 14 -58 -7 -13 -26 55 -21 75 -25 103 -10 65 11
-26 30 -31 30 -7 0 8 -4 12 -10 9 -5 -3 -7 0 -4 8 3 9 -3 16 -15 20 -12 3 -21
10 -21 17 0 6 5 8 10 5 6 -3 10 4 10 18 0 37 -20 87 -36 87 -17 0 -18 12 -2
28 14 14 -8 91 -29 99 -8 3 -11 14 -7 30 6 24 -13 103 -25 103 -3 0 -6 17 -7
38 -1 20 -7 51 -14 67 -8 17 -15 46 -17 65 -2 19 -10 48 -18 64 -8 16 -15 39
-15 50 0 33 -11 66 -20 61 -5 -3 -6 4 -3 15 3 12 0 20 -6 20 -7 0 -9 5 -6 10
9 15 -14 110 -27 110 -5 0 -7 9 -3 19 3 11 1 22 -4 25 -6 4 -8 12 -5 20 3 7
-1 26 -7 42 -7 16 -14 43 -16 59 -2 17 -9 50 -17 75 -18 58 -35 122 -48 188
-6 28 -15 52 -19 52 -5 0 -6 7 -3 15 4 9 -1 18 -11 21 -11 4 -13 9 -6 14 17
10 2 70 -18 70 -13 0 -13 2 -2 9 7 5 10 14 7 20 -4 6 -12 9 -17 6 -5 -4 -9 1
-9 10 0 9 5 13 10 10 13 -8 13 6 -1 61 -6 24 -15 44 -19 44 -5 0 -4 -16 2 -36
5 -20 7 -38 5 -40 -5 -6 -52 186 -132 536 -91 403 -117 528 -112 542 3 7 8 -7
12 -31 6 -31 10 -39 16 -28 10 18 -17 91 -30 82 -9 -5 -32 80 -30 108 1 22 18
-28 18 -55 1 -16 6 -28 11 -28 13 0 13 11 -1 66 -8 31 -16 44 -25 40 -8 -3
-14 1 -14 9 0 8 5 15 10 15 6 0 9 17 8 39 -2 23 -7 37 -14 34 -6 -2 -9 -16 -6
-31 3 -15 2 -25 -1 -22 -3 3 -8 23 -11 45 -4 28 -3 36 4 25 5 -8 10 -10 10 -4
0 5 -5 15 -11 21 -8 8 -8 17 0 31 6 10 7 22 4 26 -3 3 -7 14 -8 24 -1 9 -6 30
-10 46 -5 20 -4 31 6 37 16 10 17 7 47 -126z m-958 99 c0 -14 -9 -16 -65 -11
-64 6 -65 5 -65 -19 0 -19 -5 -24 -25 -24 -20 0 -25 5 -25 24 0 21 7 26 43 34
23 6 63 10 90 11 37 1 47 -2 47 -15z m908 -89 c-3 -3 -9 2 -12 12 -6 14 -5 15
5 6 7 -7 10 -15 7 -18z m-705 -117 c-1 -29 -6 -75 -9 -103 -4 -27 -11 -444
-15 -925 -5 -481 -12 -1030 -17 -1220 -4 -190 -6 -351 -4 -357 2 -7 8 -10 13
-8 5 3 49 7 98 9 69 2 91 0 95 -11 7 -18 -11 -24 -54 -19 -19 3 -84 5 -143 5
-69 1 -106 5 -102 11 3 6 1 10 -6 10 -7 0 -9 11 -5 33 15 82 40 677 66 1557
18 596 42 1015 62 1053 16 31 24 18 21 -35z m-206 -230 c-1 -40 -3 -8 -3 72 0
80 2 112 3 73 2 -40 2 -106 0 -145z m270 150 c-2 -13 -4 -3 -4 22 0 25 2 35 4
23 2 -13 2 -33 0 -45z m37 -933 c21 -589 28 -901 16 -740 -10 131 -37 911 -44
1260 -4 210 -4 213 4 65 5 -85 16 -348 24 -585z m-317 493 c-2 -35 -3 -9 -3
57 0 66 1 94 3 63 2 -32 2 -86 0 -120z m-10 -270 c-2 -13 -4 -5 -4 17 -1 22 1
32 4 23 2 -10 2 -28 0 -40z m513 -575 c156 -46 274 -115 380 -222 112 -113
163 -240 163 -411 0 -116 -12 -179 -64 -333 l-41 -119 33 -63 c18 -35 29 -70
26 -79 -11 -27 -24 -18 -19 13 3 20 -3 40 -17 60 -35 49 -35 79 -3 173 52 148
65 227 60 351 -6 135 -33 221 -102 326 -68 102 -151 171 -281 236 -100 49
-230 93 -242 81 -2 -2 -9 -35 -15 -73 -18 -123 -26 -136 -27 -47 -1 45 -4 96
-8 114 l-6 33 39 -7 c21 -4 77 -19 124 -33z m-151 -578 c-1 -39 -2 -39 -9 -10
-4 17 -8 41 -9 55 0 20 1 22 9 10 5 -8 9 -33 9 -55z m547 -665 c-72 -22 -111
-100 -128 -256 -19 -178 15 -399 82 -521 15 -29 23 -50 18 -47 -20 12 -76 149
-94 229 -27 114 -27 397 -1 473 29 83 78 131 132 131 14 -1 11 -4 -9 -9z
m-853 -17 c-13 -2 -33 -2 -45 0 -13 2 -3 4 22 4 25 0 35 -2 23 -4z m214 -51
c9 -6 12 -87 10 -332 l-2 -325 -74 -3 -74 -3 7 133 c12 246 27 473 32 506 5
30 7 32 47 32 23 0 47 -4 54 -8z m-748 -106 c23 -130 4 -421 -30 -475 -8 -13
-9 -13 -5 4 33 142 40 409 13 510 -12 46 -13 56 -2 42 7 -10 18 -47 24 -81z
m2108 -38 c-3 -8 -6 -5 -6 6 -1 11 2 17 5 13 3 -3 4 -12 1 -19z m70 -250 c-3
-8 -6 -5 -6 6 -1 11 2 17 5 13 3 -3 4 -12 1 -19z m23 -51 c0 -18 -2 -19 -10
-7 -13 20 -13 43 0 35 6 -3 10 -16 10 -28z m-1123 -19 c-3 -8 -6 -5 -6 6 -1
11 2 17 5 13 3 -3 4 -12 1 -19z m26 -153 c4 -40 3 -61 -2 -50 -4 11 -10 58
-13 105 -7 98 7 53 15 -55z m-448 -84 c-14 -13 -285 -26 -285 -14 0 20 17 23
154 23 85 0 136 -4 131 -9z m243 -18 c6 -15 12 -31 12 -35 0 -4 -28 -8 -62 -8
-35 0 -68 -4 -73 -8 -11 -7 -7 -124 14 -372 6 -68 8 -126 5 -129 -5 -5 -11 -6
-119 -21 l-60 -7 82 -2 c45 0 83 -4 86 -8 2 -5 2 -2 1 5 -2 8 13 12 52 12 l56
0 -7 -32 c-4 -18 -12 -37 -18 -43 -7 -7 -8 -4 -3 9 6 17 2 18 -28 13 -19 -3
-38 -1 -45 6 -8 8 -11 8 -11 0 0 -8 -48 -11 -155 -11 -144 0 -155 1 -155 18 0
10 -4 21 -8 24 -5 3 -8 -5 -8 -17 1 -19 -4 -21 -36 -19 -26 3 -38 -1 -38 -10
-1 -7 -7 1 -14 17 -7 17 -11 33 -9 38 2 4 59 4 126 1 l122 -7 -3 271 -3 271
-72 4 c-40 1 28 4 151 5 140 1 222 6 222 12 0 6 -9 10 -20 10 -21 0 -28 20 -7
21 6 0 3 4 -8 9 l-20 9 20 0 c12 1 25 -10 33 -26z m219 -85 c-3 -8 -6 -5 -6 6
-1 11 2 17 5 13 3 -3 4 -12 1 -19z m47 -143 c13 -33 13 -37 1 -20 -17 21 -46
109 -44 134 0 9 6 -4 13 -29 7 -25 20 -63 30 -85z m460 65 c-44 -103 -43 -117
32 -286 74 -167 94 -239 101 -364 26 -508 -389 -891 -1006 -927 l-108 -6 1 24
c1 22 -3 24 -64 29 -49 4 -66 9 -68 21 -3 16 35 21 168 23 l45 1 6 230 c4 127
12 266 18 310 12 83 61 298 67 293 2 -2 12 -96 24 -208 11 -113 25 -232 30
-265 6 -33 12 -140 14 -237 2 -154 0 -178 -13 -181 -9 -3 9 -2 39 1 132 12
331 88 463 176 250 166 367 382 367 676 0 157 -18 232 -95 400 -66 144 -75
191 -50 256 9 25 15 55 12 67 -6 22 -6 22 9 2 8 -11 11 -26 8 -35z m700 -6 c3
-8 2 -12 -4 -9 -6 3 -10 10 -10 16 0 14 7 11 14 -7z m-989 -44 c9 -18 11 -31
5 -35 -6 -3 -10 2 -10 12 0 10 -8 29 -17 42 -9 14 -11 21 -5 17 7 -4 19 -20
27 -36z m1022 -102 c-3 -7 -5 -2 -5 12 0 14 2 19 5 13 2 -7 2 -19 0 -25z m31
-103 c0 -16 -2 -15 -8 5 -11 34 -11 60 0 35 5 -11 8 -29 8 -40z m-171 -37 c2
-31 14 -102 19 -109 3 -5 7 -17 9 -26 3 -10 14 -52 25 -93 11 -41 19 -81 18
-89 -3 -12 -98 302 -98 322 0 13 27 8 27 -5z m201 -69 c-3 -8 -7 -3 -11 10 -4
17 -3 21 5 13 5 -5 8 -16 6 -23z m62 21 c0 -5 -4 -10 -10 -10 -5 0 -10 5 -10
10 0 6 5 10 10 10 6 0 10 -4 10 -10z m10 -30 c0 -5 -5 -10 -11 -10 -5 0 -7 5
-4 10 3 6 8 10 11 10 2 0 4 -4 4 -10z m-63 -32 c-3 -8 -6 -5 -6 6 -1 11 2 17
5 13 3 -3 4 -12 1 -19z m67 -43 c-7 -18 -8 -18 -15 1 -4 10 -8 26 -8 34 -1 12
1 12 14 -1 10 -10 13 -22 9 -34z m-1823 -53 c1 -15 2 -15 6 1 2 9 8 17 13 17
4 0 6 -9 3 -20 -5 -20 -33 -29 -33 -10 0 14 -64 12 -79 -2 -11 -10 -14 -10
-18 0 -3 7 -21 12 -43 12 -22 0 -40 -5 -43 -12 -3 -10 -8 -10 -18 1 -9 9 -9
11 -1 7 7 -4 12 -1 12 8 0 12 18 15 100 15 87 0 100 -3 101 -17z m129 -1 c0
-17 -21 -24 -33 -12 -9 9 -7 10 7 5 13 -5 17 -4 12 4 -4 7 -2 12 3 12 6 0 11
-4 11 -9z m1725 -52 c4 -11 4 -23 1 -26 -3 -4 -6 1 -6 10 0 10 -4 17 -10 17
-5 0 -10 5 -10 10 0 18 19 10 25 -11z m-1748 -21 c-43 -175 -65 -376 -74 -669
-4 -133 -10 -219 -16 -219 -9 0 -2 448 9 585 8 113 24 226 33 243 5 10 12 32
15 48 2 16 5 30 5 32 1 1 8 2 17 2 12 0 15 -6 11 -22z m-127 -445 c0 -247 -4
-443 -8 -436 -8 12 -5 883 3 883 3 0 5 -201 5 -447z m-68 335 c-2 -43 -8 -78
-13 -78 -13 0 -11 117 2 142 6 11 11 18 12 16 2 -1 1 -38 -1 -80z m-145 10
c-3 -8 -6 -5 -6 6 -1 11 2 17 5 13 3 -3 4 -12 1 -19z m43 -172 c10 -61 21
-147 24 -191 l5 -80 -10 70 c-13 88 -47 302 -54 335 l-6 25 11 -24 c6 -13 19
-74 30 -135z m-617 -515 c74 -48 90 -65 27 -29 -57 33 -177 135 -219 188 -21
26 -2 11 44 -35 44 -44 110 -100 148 -124z m2664 139 c-4 -24 -27 -51 -27 -31
0 14 18 51 25 51 3 0 3 -9 2 -20z m-142 -70 c27 -30 10 -74 -29 -78 -33 -4
-46 10 -46 50 0 45 45 62 75 28z m145 16 c0 -3 -4 -8 -10 -11 -5 -3 -10 -1
-10 4 0 6 5 11 10 11 6 0 10 -2 10 -4z m-19 -48 c-21 -52 -24 -64 -22 -91 2
-17 -3 -29 -13 -33 -12 -5 -15 -14 -11 -38 4 -19 -2 -64 -15 -111 -89 -331
-109 -403 -118 -425 -9 -24 -9 -24 -16 -3 -4 12 0 46 7 75 8 29 23 89 32 133
18 86 22 101 56 212 12 40 22 76 22 80 0 4 8 35 18 67 10 33 16 63 14 67 -5 7
18 69 31 82 15 15 23 6 15 -15z m-166 -67 c33 -11 51 -19 40 -19 -21 0 -128
36 -110 37 6 0 37 -8 70 -18z m-2108 -135 c48 -14 81 -25 72 -25 -45 -2 -331
97 -344 119 -3 5 37 -9 89 -31 52 -21 134 -50 183 -63z m2021 -33 c-3 -29 -32
-43 -50 -25 -18 18 1 52 28 52 22 0 25 -4 22 -27z m-1885 0 c-7 -2 -21 -2 -30
0 -10 3 -4 5 12 5 17 0 24 -2 18 -5z m65 -10 c-10 -2 -26 -2 -35 0 -10 3 -2 5
17 5 19 0 27 -2 18 -5z m-628 -260 c-123 -82 -236 -230 -271 -353 -6 -25 -15
-88 -20 -140 l-7 -95 3 105 c4 155 52 271 156 380 49 52 164 140 182 140 7 0
-13 -16 -43 -37z m720 15 c-2 -148 -40 -416 -69 -488 l-10 -25 0 29 c-1 16 -5
45 -10 65 -5 20 -18 90 -27 156 -11 70 -23 123 -31 128 -7 4 -13 16 -12 25 0
14 2 13 9 -3 7 -16 9 -11 9 21 1 26 -4 44 -12 47 -8 3 -13 16 -12 29 1 13 -5
26 -14 30 -9 4 28 7 82 7 94 1 97 0 97 -21z m439 -5 c-6 -15 -14 -30 -18 -33
-4 -3 -16 -45 -25 -95 -10 -49 -24 -108 -31 -130 -7 -22 -23 -74 -35 -115 -12
-41 -24 -82 -27 -90 -3 -8 -6 -26 -5 -40 1 -35 -25 48 -43 135 -20 97 -35 235
-35 323 l0 72 115 0 115 0 -11 -27z m552 -33 c118 -92 217 -237 234 -345 4
-28 -2 -18 -18 30 -13 39 -36 92 -52 119 -40 69 -136 168 -207 216 -33 22 -54
40 -47 40 8 0 48 -27 90 -60z m-802 -113 c2 -135 34 -368 67 -469 3 -10 1 -18
-4 -18 -5 0 -12 15 -15 33 -4 17 -15 75 -25 127 -19 93 -26 161 -37 350 -3 63
-2 88 4 75 5 -11 10 -55 10 -98z m626 -247 c-41 -113 -74 -201 -75 -197 0 5 9
43 20 86 18 71 118 326 126 319 1 -2 -31 -95 -71 -208z m58 -18 c-37 -94 -69
-170 -71 -168 -7 7 40 150 70 216 17 36 37 80 45 99 8 18 16 31 18 29 2 -2
-26 -81 -62 -176z m914 156 c-3 -8 -6 -5 -6 6 -1 11 2 17 5 13 3 -3 4 -12 1
-19z m-550 -305 c-2 -27 -3 -5 -3 47 0 52 1 74 3 48 2 -27 2 -69 0 -95z
m-1180 10 c-2 -16 -4 -3 -4 27 0 30 2 43 4 28 2 -16 2 -40 0 -55z"/>
<path d="M2905 7540 c4 -6 11 -8 16 -5 14 9 11 15 -7 15 -8 0 -12 -5 -9 -10z"/>
<path d="M3480 6880 c0 -5 5 -10 11 -10 5 0 7 5 4 10 -3 6 -8 10 -11 10 -2 0
-4 -4 -4 -10z"/>
<path d="M3495 6830 c3 -19 9 -38 13 -42 12 -12 7 36 -7 57 -11 18 -12 16 -6
-15z"/>
<path d="M3517 6730 c3 -19 10 -44 14 -55 7 -18 8 -17 8 5 0 14 -6 39 -14 55
l-14 30 6 -35z"/>
<path d="M3550 6573 c0 -17 6 -36 14 -42 12 -10 13 -6 6 24 -11 48 -20 56 -20
18z"/>
<path d="M3581 6455 c0 -11 4 -29 9 -40 l9 -20 0 20 c0 11 -4 29 -9 40 l-9 20
0 -20z"/>
<path d="M3607 6335 c3 -27 9 -54 14 -59 13 -14 10 22 -6 69 l-14 40 6 -50z"/>
<path d="M3629 6245 c-7 -6 14 -91 25 -102 4 -4 4 10 0 32 -9 52 -18 77 -25
70z"/>
<path d="M3656 6109 c3 -6 9 -28 11 -48 5 -35 23 -69 23 -42 0 28 -23 101 -32
101 -5 0 -6 -5 -2 -11z"/>
<path d="M4130 4256 c0 -9 5 -16 10 -16 6 0 10 4 10 9 0 6 -4 13 -10 16 -5 3
-10 -1 -10 -9z"/>
<path d="M4175 4260 c3 -5 8 -10 11 -10 2 0 4 5 4 10 0 6 -5 10 -11 10 -5 0
-7 -4 -4 -10z"/>
<path d="M2841 2444 c0 -11 3 -14 6 -6 3 7 2 16 -1 19 -3 4 -6 -2 -5 -13z"/>
<path d="M2510 2140 c0 -6 38 -10 95 -10 57 0 95 4 95 10 0 6 -38 10 -95 10
-57 0 -95 -4 -95 -10z"/>
<path d="M4314 2359 c-7 -12 12 -29 34 -29 19 0 14 18 -7 30 -14 7 -22 7 -27
-1z"/>
<path d="M4300 2320 c0 -5 5 -10 11 -10 5 0 7 5 4 10 -3 6 -8 10 -11 10 -2 0
-4 -4 -4 -10z"/>
<path d="M2905 1840 c-3 -5 1 -10 9 -10 9 0 16 5 16 10 0 6 -4 10 -9 10 -6 0
-13 -4 -16 -10z"/>
</g>
</svg>
