<?xml version="1.0" standalone="no"?>
<!DOCTYPE svg PUBLIC "-//W3C//DTD SVG 20010904//EN"
 "http://www.w3.org/TR/2001/REC-SVG-20010904/DTD/svg10.dtd">
<svg version="1.0" xmlns="http://www.w3.org/2000/svg"
 width="524.000000pt" height="1000.000000pt" viewBox="0 0 524.000000 1000.000000"
 preserveAspectRatio="xMidYMid meet">

<g transform="translate(0.000000,1000.000000) scale(0.100000,-0.100000)"
fill="#000000" stroke="none">
<path d="M0 7154 l0 -2846 36 7 c20 3 43 12 50 20 7 7 30 23 51 36 21 12 49
32 63 44 30 27 66 40 74 26 3 -5 -28 -33 -69 -63 l-74 -55 106 -7 c180 -11
172 -12 233 44 30 28 58 50 62 50 5 0 8 5 8 11 0 6 -9 9 -20 6 -22 -6 -28 8
-7 16 7 3 4 6 -6 6 -10 1 -27 -4 -37 -9 -16 -8 -18 -7 -14 4 9 22 28 26 91 16
32 -6 61 -10 66 -10 29 0 -41 -80 -108 -122 l-30 -19 44 3 c29 2 46 8 49 18 5
13 3 13 -12 1 -33 -28 -25 -3 10 30 20 19 47 44 59 56 17 17 35 23 76 24 99 4
90 -2 277 172 95 86 96 87 148 87 58 0 51 9 70 -90 4 -23 2 -30 -10 -30 -9 0
-16 -5 -16 -11 0 -6 -13 -9 -28 -8 -20 3 -39 -5 -63 -25 -40 -33 -54 -54 -36
-53 34 3 128 -17 138 -29 6 -8 20 -14 30 -14 22 0 23 -6 7 -68 -18 -73 -35
-93 -72 -87 -25 4 -975 19 -1026 16 -8 -1 -39 -4 -67 -7 l-53 -6 0 -2144 0
-2144 2620 0 2620 0 0 1930 0 1929 -122 3 -123 3 -5 165 c-5 164 -5 165 -13
75 -4 -49 -10 -125 -13 -168 l-6 -77 -172 2 -171 3 -6 163 c-6 156 -18 229
-20 126 -1 -27 -4 -103 -8 -169 l-6 -120 -175 0 -175 0 -5 110 -5 110 -7 -102
c-3 -56 -8 -105 -11 -110 -3 -4 -84 -7 -181 -5 l-176 3 0 149 0 148 28 6 c15
4 48 0 75 -8 26 -8 47 -13 48 -13 13 35 -4 167 -22 167 -5 0 -9 9 -9 20 0 11
-4 20 -10 20 -16 0 -32 80 -25 124 4 22 20 94 36 158 91 366 105 575 53 783
-66 262 -227 495 -444 640 -84 57 -244 134 -296 142 -19 3 -34 10 -34 15 0 5
-4 7 -9 4 -5 -4 -11 -3 -13 2 -1 4 -29 15 -61 25 -89 28 -63 29 39 1 399 -106
680 -351 809 -705 63 -173 82 -404 49 -594 -12 -73 -89 -405 -111 -479 -4 -15
-2 -16 12 -9 18 11 77 -5 97 -25 7 -7 27 -12 45 -12 19 0 36 -6 41 -16 8 -15
10 -15 15 0 5 12 21 16 72 16 36 0 65 3 65 8 0 4 -8 18 -17 31 -9 14 -22 57
-29 98 -7 42 -22 87 -35 104 l-21 30 58 -3 59 -3 71 -109 c79 -119 104 -150
104 -126 0 8 -32 62 -70 120 -39 57 -70 108 -70 112 0 9 35 9 69 -1 16 -4 25
-15 26 -29 1 -12 9 -30 18 -39 8 -10 19 -30 22 -45 4 -16 11 -26 15 -23 13 8
31 -21 24 -39 -4 -11 -1 -16 10 -16 9 0 16 -4 16 -10 0 -5 26 -17 58 -25 31
-9 65 -20 74 -25 9 -5 49 -10 88 -11 45 -1 77 -7 85 -15 16 -16 35 -18 35 -4
0 6 7 10 15 10 19 0 19 14 0 43 -19 29 -33 143 -17 133 7 -4 12 -14 12 -22 0
-8 5 -14 10 -14 6 0 10 -9 10 -19 0 -11 11 -32 24 -48 25 -29 118 -60 211 -70
28 -3 55 -9 62 -15 7 -5 17 -7 23 -3 7 4 10 870 10 2801 l0 2794 -1330 0
-1330 0 0 -25 c0 -13 16 -109 35 -211 36 -189 43 -274 11 -128 -9 43 -24 108
-32 144 -9 36 -18 96 -21 133 -5 58 -9 70 -27 77 -34 13 -46 -14 -46 -104 0
-103 -7 -95 -12 13 -4 82 -5 85 -31 92 -30 8 -28 13 -46 -101 l-10 -65 5 88 5
87 -1205 0 -1206 0 0 -2846z m2699 2653 c6 -18 19 -57 29 -87 21 -60 38 -139
27 -129 -10 11 -83 259 -74 253 5 -2 13 -19 18 -37z m115 -69 c9 -34 7 -76 -3
-82 -5 -4 -11 19 -13 49 -3 56 5 73 16 33z m-124 -626 c6 -57 9 -106 6 -109
-7 -7 -14 29 -20 112 -4 39 -9 84 -12 100 -4 21 -2 26 4 15 5 -8 15 -62 22
-118z m-313 41 c-3 -10 -5 -4 -5 12 0 17 2 24 5 18 2 -7 2 -21 0 -30z m6 -60
c3 -14 1 -69 -4 -122 -4 -53 -9 -139 -9 -191 0 -52 -5 -102 -10 -110 -6 -10
-10 34 -10 135 0 238 16 377 33 288z m787 -123 c0 -5 -7 -10 -15 -10 -8 0 -15
5 -15 10 0 6 7 10 15 10 8 0 15 -4 15 -10z m-463 -77 c-2 -16 -4 -5 -4 22 0
28 2 40 4 28 2 -13 2 -35 0 -50z m453 47 c0 -15 -38 -32 -45 -20 -3 5 -3 15 0
20 8 13 45 13 45 0z m-431 -263 c1 -30 -3 -46 -9 -42 -6 4 -9 51 -8 113 1 102
1 104 8 42 4 -36 8 -87 9 -113z m-140 -547 c6 -217 18 -627 26 -910 34 -1185
46 -1615 60 -2160 8 -316 19 -755 25 -975 6 -220 15 -580 20 -799 7 -279 13
-403 21 -410 9 -8 10 -7 5 2 -6 9 0 11 24 7 17 -3 29 -2 27 2 -3 5 24 8 59 8
l64 0 1 30 c2 27 2 28 6 5 3 -23 8 -25 38 -22 20 2 35 0 35 -6 0 -6 5 -23 11
-39 6 -15 10 -30 9 -33 -1 -2 8 -7 19 -12 39 -14 21 -28 -36 -30 -139 -3 -230
-1 -250 6 l-23 8 -2 -468 -3 -469 -5 465 c-3 256 -7 466 -8 468 -1 2 -46 2
-99 1 -88 -1 -99 -4 -110 -23 -12 -20 -12 -20 -13 -1 0 19 -6 20 -90 17 -74
-3 -90 -1 -90 11 0 10 8 13 24 10 13 -3 33 0 45 6 11 7 21 8 21 4 0 -4 18 -8
40 -8 38 0 40 2 47 35 7 39 -10 4293 -22 5380 -2 233 0 406 4 395 5 -11 10
-200 10 -420 1 -220 6 -1023 11 -1785 5 -762 10 -1862 10 -2445 1 -583 5
-1078 9 -1100 5 -22 9 -33 10 -24 1 16 10 19 73 21 25 0 35 4 31 12 -4 6 2 4
12 -4 11 -9 16 -10 11 -2 -4 7 -1 12 8 12 9 0 17 -8 17 -17 1 -17 2 -17 6 0 7
25 25 21 21 -5 -2 -16 -10 -23 -25 -23 -36 0 -32 -20 5 -23 l32 -3 0 93 c-1
51 -5 248 -10 438 -5 190 -12 473 -15 630 -5 253 -22 921 -55 2170 -6 217 -17
618 -25 890 -23 746 -45 1571 -44 1605 4 93 19 -172 28 -515z m-213 -653 c-21
-1428 -36 -2265 -46 -2632 -7 -242 -8 -188 -4 280 2 319 7 670 9 780 3 110 7
371 10 580 21 1528 35 2203 43 2112 2 -21 -4 -525 -12 -1120z m271 1121 c-3
-7 -5 -2 -5 12 0 14 2 19 5 13 2 -7 2 -19 0 -25z m10 -145 c-2 -21 -4 -6 -4
32 0 39 2 55 4 38 2 -18 2 -50 0 -70z m23 -323 c14 -302 47 -945 70 -1400 11
-212 29 -572 40 -800 11 -228 29 -597 40 -820 33 -666 49 -1053 54 -1270 4
-154 -1 -100 -18 220 -13 234 -29 535 -35 670 -6 135 -22 481 -36 770 -14 289
-32 667 -40 840 -8 173 -20 403 -25 510 -46 899 -75 1583 -65 1520 2 -14 9
-122 15 -240z m87 -922 c-3 -8 -6 -5 -6 6 -1 11 2 17 5 13 3 -3 4 -12 1 -19z
m10 -170 c-2 -13 -4 -5 -4 17 -1 22 1 32 4 23 2 -10 2 -28 0 -40z m10 -195
c-3 -10 -5 -4 -5 12 0 17 2 24 5 18 2 -7 2 -21 0 -30z m10 -175 c-2 -18 -4 -6
-4 27 0 33 2 48 4 33 2 -15 2 -42 0 -60z m10 -220 c-2 -18 -4 -6 -4 27 0 33 2
48 4 33 2 -15 2 -42 0 -60z m20 -340 c-2 -18 -4 -4 -4 32 0 36 2 50 4 33 2
-18 2 -48 0 -65z m17 -213 c4 -71 9 -157 11 -190 9 -100 34 -627 50 -1025 8
-206 22 -463 30 -570 17 -232 17 -210 8 -210 -5 0 -9 21 -10 48 -2 26 -12 166
-23 312 -11 146 -27 434 -35 640 -9 206 -20 467 -24 580 -19 415 -23 555 -18
550 2 -3 8 -63 11 -135z m273 43 c-3 -7 -5 -2 -5 12 0 14 2 19 5 13 2 -7 2
-19 0 -25z m103 -50 c0 -62 -5 -60 -14 5 -5 31 -4 47 3 47 7 0 11 -22 11 -52z
m17 0 c-3 -8 -6 -5 -6 6 -1 11 2 17 5 13 3 -3 4 -12 1 -19z m113 -38 c0 -43
34 -86 46 -56 3 9 3 23 0 32 -5 13 -9 14 -21 4 -13 -11 -15 -7 -15 22 0 30 3
34 26 33 14 -1 29 -7 34 -15 4 -7 13 -9 19 -6 6 4 16 -3 22 -17 6 -13 27 -32
47 -43 59 -31 102 -73 103 -103 l2 -26 5 25 c4 23 5 24 13 5 7 -19 8 -19 8 3
2 40 21 13 21 -29 0 -28 4 -38 12 -33 7 5 9 1 6 -13 -4 -15 -1 -20 11 -19 16
1 19 -33 12 -134 -4 -62 10 -118 30 -123 12 -3 17 -11 13 -20 -3 -8 -1 -18 5
-22 6 -3 11 -17 11 -30 0 -12 7 -25 15 -29 16 -6 19 -45 9 -108 -8 -43 -23
-52 -18 -10 2 15 1 19 -2 10 -6 -21 -24 -24 -24 -5 0 8 -3 8 -9 -2 -7 -11 -11
-6 -14 20 -2 19 -3 10 -1 -20 3 -62 -3 -62 -15 0 -7 35 -9 20 -8 -70 1 -81 5
-115 14 -118 18 -7 16 -33 -3 -33 -12 0 -15 -13 -13 -70 1 -39 -1 -73 -4 -77
-4 -3 -7 7 -8 23 0 16 -3 23 -6 17 -2 -7 -11 -13 -19 -13 -9 0 -14 -11 -14
-34 0 -19 -4 -38 -10 -41 -5 -3 -10 -1 -10 5 0 6 -10 0 -22 -13 -13 -13 -32
-29 -44 -35 -21 -11 -64 -6 -64 8 0 4 -11 10 -25 12 -17 4 -25 1 -25 -8 0 -8
6 -11 15 -8 10 4 15 0 15 -11 0 -12 -6 -16 -20 -12 -24 6 -38 -12 -19 -24 7
-4 11 -9 9 -11 -41 -26 -50 -28 -50 -9 0 10 -6 24 -14 30 -12 10 -15 7 -18
-16 l-4 -28 -12 28 c-12 28 -26 35 -37 17 -14 -22 -35 -9 -36 23 -1 23 -3 26
-6 10 -5 -27 -9 -28 -31 -6 -13 12 -18 43 -23 132 -3 64 -7 107 -8 96 -1 -11
-4 -36 -7 -55 -3 -19 -5 -45 -5 -57 1 -13 -3 -23 -8 -23 -5 0 -9 41 -10 92 -2
100 -11 137 -11 45 0 -75 -20 -74 -22 1 -1 43 -2 48 -5 19 -3 -21 -8 -35 -14
-31 -6 3 -7 24 -3 50 5 36 3 44 -10 44 -16 0 -36 29 -36 53 0 10 8 14 25 12
28 -3 32 7 10 25 -17 14 -20 36 -5 43 6 3 5 4 -2 3 -7 -1 -15 -13 -17 -27 -3
-22 -4 -23 -12 -4 -6 16 -8 14 -8 -12 -1 -18 -5 -33 -10 -33 -4 0 -7 12 -5 27
1 15 -4 32 -11 37 -17 13 -33 92 -17 82 6 -3 14 -1 18 5 5 8 3 9 -5 4 -10 -5
-11 4 -6 39 5 31 4 46 -4 46 -6 0 -11 16 -11 36 0 19 4 33 8 30 4 -2 7 22 6
54 -1 61 14 111 17 55 2 -27 3 -25 9 10 l7 40 2 -37 c1 -28 5 -38 17 -38 13 0
14 3 5 14 -9 11 -9 16 -1 21 7 4 10 18 7 31 -2 13 0 21 4 18 5 -3 10 -20 11
-37 1 -18 4 6 7 53 l6 85 9 -107 c9 -121 25 -148 20 -35 -3 62 -2 67 7 37 5
-19 10 -64 11 -100 1 -64 1 -64 9 -20 7 44 7 44 5 -12 -2 -32 1 -58 6 -58 5 0
6 62 1 143 -4 78 -7 157 -7 175 0 17 -4 32 -9 32 -5 0 -6 13 -2 29 4 19 1 34
-9 44 -9 9 -16 22 -15 29 0 10 2 10 6 1 8 -20 21 -15 26 10 4 18 4 17 6 -6 0
-16 5 -26 10 -22 6 3 13 -16 16 -42 11 -85 14 -80 11 17 -3 56 -1 87 4 75 5
-11 9 -39 9 -62 1 -23 6 -45 11 -48 7 -4 9 19 6 67 l-4 73 13 -60 c9 -42 13
-51 14 -29 1 16 6 35 13 42 9 9 8 15 -4 24 -13 11 -13 17 -2 38 l14 25 0 -23
c0 -13 4 -20 10 -17 6 4 10 12 9 18 -3 27 2 35 21 30 15 -4 20 -14 20 -43z
m-208 -185 c-9 -13 -21 65 -20 130 0 43 2 38 13 -35 7 -47 10 -89 7 -95z m-35
143 c-3 -8 -6 -5 -6 6 -1 11 2 17 5 13 3 -3 4 -12 1 -19z m90 -10 c-3 -8 -6
-5 -6 6 -1 11 2 17 5 13 3 -3 4 -12 1 -19z m-90 -150 c-3 -7 -5 -2 -5 12 0 14
2 19 5 13 2 -7 2 -19 0 -25z m-20 -40 c-3 -8 -6 -5 -6 6 -1 11 2 17 5 13 3 -3
4 -12 1 -19z m-40 -40 c-3 -8 -6 -5 -6 6 -1 11 2 17 5 13 3 -3 4 -12 1 -19z
m-1827 -12 c0 -3 -4 -8 -10 -11 -5 -3 -10 -1 -10 4 0 6 5 11 10 11 6 0 10 -2
10 -4z m1767 -153 c-3 -10 -5 -4 -5 12 0 17 2 24 5 18 2 -7 2 -21 0 -30z m20
-15 c-2 -13 -4 -5 -4 17 -1 22 1 32 4 23 2 -10 2 -28 0 -40z m-1826 -11 c-8
-8 -11 -5 -11 9 0 27 14 41 18 19 2 -9 -1 -22 -7 -28z m1819 -49 c0 -17 -3
-28 -7 -24 -11 11 -12 67 -2 60 5 -3 9 -19 9 -36z m-1829 -28 c-7 -36 -9 -39
-10 -15 -1 33 11 85 16 70 1 -6 -1 -30 -6 -55z m1846 -42 c-3 -8 -6 -5 -6 6
-1 11 2 17 5 13 3 -3 4 -12 1 -19z m-7 -119 c0 -10 -4 -19 -10 -19 -5 0 -10
12 -10 26 0 14 4 23 10 19 6 -3 10 -15 10 -26z m737 -61 c-3 -8 -6 -5 -6 6 -1
11 2 17 5 13 3 -3 4 -12 1 -19z m-81 -356 c-12 -12 -18 8 -10 35 l8 28 4 -28
c2 -16 1 -31 -2 -35z m34 4 c0 -14 -4 -28 -10 -31 -6 -4 -10 7 -10 24 0 17 5
31 10 31 6 0 10 -11 10 -24z m-538 -21 c-6 -34 -12 -32 -12 6 0 16 4 28 9 25
4 -3 6 -17 3 -31z m31 3 c-8 -46 -13 -48 -13 -5 0 21 4 37 10 37 5 0 7 -14 3
-32z m1663 -49 c4 -8 1 -8 -14 0 -12 6 -24 16 -28 22 -4 8 -1 8 14 0 12 -6 24
-16 28 -22z m-1161 11 c3 -5 1 -10 -4 -10 -6 0 -11 5 -11 10 0 6 2 10 4 10 3
0 8 -4 11 -10z m-180 -30 c-3 -6 1 -7 9 -4 11 4 16 0 16 -10 0 -9 -4 -16 -10
-16 -5 0 -10 -11 -10 -25 0 -16 6 -25 15 -25 8 0 15 -9 15 -20 0 -11 -7 -20
-15 -20 -8 0 -15 9 -15 20 0 11 -4 20 -9 20 -12 0 -21 41 -14 68 3 12 10 22
15 22 5 0 6 -4 3 -10z m-75 -65 c14 -8 19 -14 13 -15 -7 0 -13 -10 -13 -22 0
-21 0 -21 14 -2 14 18 16 17 50 -18 23 -24 31 -38 23 -42 -9 -3 -7 -8 4 -15
20 -13 18 -82 -3 -121 -16 -31 -48 -28 -49 3 -1 20 -2 20 -8 -3 -6 -22 -8 -23
-14 -7 -4 10 -7 34 -7 52 0 19 -4 37 -10 40 -5 3 -10 18 -11 33 0 15 -3 20 -6
12 -14 -43 -18 -39 -23 30 -8 98 -6 101 40 75z m-63 -87 c-3 -8 -6 -5 -6 6 -1
11 2 17 5 13 3 -3 4 -12 1 -19z m3 -39 c0 -10 -4 -19 -10 -19 -5 0 -10 4 -10
9 0 5 -3 17 -6 25 -5 12 -2 15 10 10 9 -3 16 -15 16 -25z m-2940 1 c-24 -15
-37 -11 -16 5 11 8 22 12 25 9 3 -3 -1 -9 -9 -14z m70 -44 c0 -3 -4 -8 -10
-11 -5 -3 -10 -1 -10 4 0 6 5 11 10 11 6 0 10 -2 10 -4z m2847 -33 c-3 -10 -5
-4 -5 12 0 17 2 24 5 18 2 -7 2 -21 0 -30z m-20 -20 c-3 -10 -5 -2 -5 17 0 19
2 27 5 18 2 -10 2 -26 0 -35z m114 -79 c6 -7 4 -16 -6 -24 -13 -11 -15 -7 -15
29 0 22 -4 41 -10 41 -14 0 -12 24 3 39 10 10 13 4 15 -31 2 -23 8 -48 13 -54z
m-149 47 c-5 -3 -12 -15 -15 -26 -3 -12 -5 -4 -6 18 -1 23 3 36 9 32 6 -3 11
0 11 7 1 7 3 5 6 -6 3 -10 1 -21 -5 -25z m96 -1 c18 -17 22 -32 22 -77 l0 -56
30 32 c17 17 32 31 35 31 11 0 3 -33 -25 -102 l-29 -73 -1 43 c0 24 -4 41 -9
37 -5 -3 -12 4 -16 15 -3 11 -11 20 -16 20 -6 0 -7 25 -3 65 6 56 5 65 -10 65
-9 0 -16 5 -16 10 0 16 14 12 38 -10z m-30 -187 c0 -66 -3 -101 -9 -92 -6 9
-8 -3 -8 -36 1 -40 3 -45 9 -25 7 21 8 16 11 -25 1 -27 1 -58 0 -69 0 -10 4
-24 9 -31 6 -8 11 -35 11 -62 -1 -26 1 -77 4 -113 10 -149 12 -241 4 -246 -14
-8 -10 -54 5 -60 9 -3 13 -17 11 -37 -1 -18 1 -51 5 -75 5 -29 4 -45 -5 -50
-6 -4 -15 -16 -20 -27 -7 -16 -10 -8 -15 35 -4 36 -1 62 7 77 17 29 16 44 -1
37 -7 -3 -13 -11 -12 -17 0 -7 -3 -13 -9 -14 -5 -2 -10 5 -11 15 -1 9 -2 33
-3 52 -1 27 -4 31 -11 20 -7 -11 -10 -7 -10 18 0 18 -3 31 -7 29 -5 -3 -9 5
-10 16 0 12 -6 38 -11 57 l-10 35 -1 -39 c-1 -38 -1 -39 -21 -21 -10 9 -18 22
-17 28 1 6 -9 11 -23 12 -61 3 -71 6 -95 30 -21 22 -25 23 -25 8 -1 -17 -2
-17 -15 1 -15 20 -15 20 -16 0 0 -18 -1 -18 -9 1 l-9 20 -1 -20 c-2 -14 -5
-11 -9 10 -4 17 -12 29 -19 27 -8 -1 -12 15 -12 48 0 49 12 66 24 34 3 -8 2
-12 -4 -9 -6 4 -10 -6 -10 -21 l0 -27 24 26 c20 22 26 41 32 107 7 87 21 108
22 33 1 -25 7 -51 13 -57 8 -7 10 -7 6 0 -3 5 -2 27 3 47 4 21 4 39 -1 43 -5
3 0 14 11 26 21 23 17 46 -6 27 -11 -9 -14 -7 -14 9 0 12 9 23 20 27 11 3 20
15 20 26 0 10 5 19 10 19 6 0 10 -4 10 -10 0 -5 5 -10 10 -10 6 0 10 9 10 21
0 28 34 21 38 -9 5 -31 22 -17 22 19 0 23 -4 29 -22 29 -19 0 -20 2 -6 13 22
18 29 44 12 51 -8 3 -14 16 -13 28 0 15 3 18 6 8 6 -16 23 -30 36 -30 4 0 7
24 7 53 1 28 7 63 14 76 12 23 13 21 20 -28 9 -66 22 -58 31 19 11 92 23 62
23 -57z m-1051 -40 c-2 -16 -4 -3 -4 27 0 30 2 43 4 28 2 -16 2 -40 0 -55z
m1513 -1 c0 -38 -3 -103 -6 -145 l-7 -77 -108 0 -109 0 -1 28 c-2 42 -15 -30
-34 -183 -18 -142 -15 -204 16 -382 21 -125 53 -230 94 -313 33 -68 46 -100
40 -100 -6 0 -65 115 -87 170 -53 133 -92 365 -89 535 1 111 42 321 61 310 5
-3 11 4 15 15 14 43 90 144 134 176 71 52 81 48 81 -34z m-563 1 c-3 -10 -5
-4 -5 12 0 17 2 24 5 18 2 -7 2 -21 0 -30z m150 -40 c-3 -10 -5 -2 -5 17 0 19
2 27 5 18 2 -10 2 -26 0 -35z m-210 -25 c-3 -8 -6 -5 -6 6 -1 11 2 17 5 13 3
-3 4 -12 1 -19z m210 -50 c-3 -7 -5 -2 -5 12 0 14 2 19 5 13 2 -7 2 -19 0 -25z
m-1103 -193 c-2 -55 -6 -300 -9 -545 -4 -257 -10 -449 -16 -455 -5 -5 -9 3 -9
22 0 17 -6 34 -12 36 -10 4 -10 8 1 15 12 8 16 81 22 394 4 210 8 448 9 528 1
86 5 137 10 125 4 -11 6 -65 4 -120z m599 -625 l5 -205 -13 245 c-7 135 -13
288 -13 340 1 88 2 85 8 -40 4 -74 10 -227 13 -340z m280 308 c71 -95 88 -169
93 -403 3 -180 3 -180 -10 -95 -8 47 -19 101 -25 120 -7 23 -8 36 -1 38 12 4
14 62 2 62 -5 0 -9 6 -9 13 0 6 -3 32 -6 55 -5 37 -4 42 8 32 12 -10 13 -7 5
21 -12 39 -20 49 -21 23 0 -18 -1 -18 -10 1 -6 14 -7 6 -2 -25 10 -69 5 -180
-8 -196 -10 -12 -8 -17 7 -28 16 -12 17 -16 4 -31 -15 -18 -16 -21 -19 -70
l-1 -30 -15 28 c-8 15 -12 34 -8 42 3 9 -1 15 -10 15 -9 0 -21 8 -27 18 -9 15
-10 14 -9 -8 2 -39 0 -50 -11 -50 -5 0 -10 19 -10 43 0 66 -12 147 -21 142 -4
-3 -10 4 -14 15 -8 26 4 102 15 95 4 -3 6 -14 3 -25 -3 -11 0 -20 6 -20 10 0
16 28 11 60 -1 8 2 11 7 7 4 -5 8 -31 8 -57 0 -27 5 -54 11 -60 12 -12 18 72
16 210 0 32 4 58 11 62 9 6 9 8 0 8 -7 0 -13 5 -13 10 0 20 19 10 43 -22z
m264 -377 c5 -3 21 -44 37 -91 25 -70 30 -102 31 -185 1 -55 5 -118 10 -139 6
-29 5 -37 -3 -32 -7 4 -12 2 -12 -3 0 -6 6 -11 13 -11 28 0 63 -219 37 -235
-5 -3 -10 -2 -10 4 0 5 -9 13 -20 16 -11 3 -20 15 -20 26 0 10 -6 19 -14 19
-8 0 -20 15 -27 33 -7 17 -15 36 -17 41 -3 5 0 6 7 2 6 -4 11 -1 11 8 0 9 -6
16 -13 16 -17 0 -35 83 -49 224 -8 88 -8 124 0 137 7 10 8 20 3 23 -5 3 -11
24 -15 47 -5 32 -3 46 10 61 14 14 15 21 6 30 -7 7 -11 37 -11 68 2 50 2 52 9
20 l7 -35 3 40 c2 37 3 35 11 -19 5 -33 12 -62 16 -65z m-390 77 c-3 -8 -6 -5
-6 6 -1 11 2 17 5 13 3 -3 4 -12 1 -19z m-20 -30 c-3 -8 -6 -5 -6 6 -1 11 2
17 5 13 3 -3 4 -12 1 -19z m42 -88 c-9 -43 -13 -51 -20 -35 -4 11 -7 43 -7 70
0 28 2 41 5 30 11 -44 25 -40 19 5 -5 39 -4 41 4 15 7 -20 6 -48 -1 -85z m-39
-1 c0 -10 -3 -19 -7 -19 -5 0 -8 11 -8 24 0 13 3 22 8 19 4 -2 7 -13 7 -24z
m84 -100 c-3 -5 -10 -7 -15 -3 -5 3 -7 10 -3 15 3 5 10 7 15 3 5 -3 7 -10 3
-15z m606 -59 c6 -11 8 -20 6 -20 -3 0 -10 9 -16 20 -6 11 -8 20 -6 20 3 0 10
-9 16 -20z m-525 1 c3 -5 1 -12 -5 -16 -5 -3 -10 1 -10 9 0 18 6 21 15 7z
m-878 -47 c-3 -3 -12 -4 -19 -1 -8 3 -5 6 6 6 11 1 17 -2 13 -5z m133 -4 c0
-5 -2 -10 -4 -10 -3 0 -8 5 -11 10 -3 6 -1 10 4 10 6 0 11 -4 11 -10z m830
-54 c0 -35 5 -87 10 -116 12 -63 6 -79 -8 -24 -14 54 -22 204 -11 204 5 0 9
-29 9 -64z m-863 48 c-3 -3 -12 -4 -19 -1 -8 3 -5 6 6 6 11 1 17 -2 13 -5z
m198 -54 c-16 -4 -48 -8 -70 -8 l-40 1 35 7 c19 4 51 7 70 8 l35 0 -30 -8z
m-322 -320 l6 -145 -14 170 c-7 94 -13 197 -13 230 1 54 2 51 8 -25 5 -47 11
-150 13 -230z m1867 277 c0 -5 -4 -5 -10 -2 -5 3 -10 14 -10 23 0 15 2 15 10
2 5 -8 10 -19 10 -23z m-1253 -9 c-3 -8 -6 -5 -6 6 -1 11 2 17 5 13 3 -3 4
-12 1 -19z m-415 -218 c2 -102 1 -165 -3 -140 -7 43 -10 371 -3 340 1 -8 4
-98 6 -200z m1675 188 c-3 -8 -6 -5 -6 6 -1 11 2 17 5 13 3 -3 4 -12 1 -19z
m83 -105 c0 -24 -4 -43 -9 -43 -5 0 -9 10 -8 23 0 12 -3 40 -7 62 -7 37 -6 39
8 21 9 -11 16 -39 16 -63z m-1046 51 c3 -8 2 -12 -4 -9 -6 3 -10 10 -10 16 0
14 7 11 14 -7z m123 -126 c-3 -8 -6 -5 -6 6 -1 11 2 17 5 13 3 -3 4 -12 1 -19z
m882 -43 c-10 -30 -19 -69 -19 -86 0 -44 24 -130 66 -234 47 -119 119 -334
138 -415 40 -169 49 -436 21 -625 -26 -171 -99 -365 -182 -477 -59 -82 -49
-49 17 52 39 60 80 151 104 230 50 168 60 243 60 430 0 272 -21 361 -201 865
-42 119 -49 215 -19 278 27 56 37 45 15 -18z m-856 -5 c3 -11 1 -18 -4 -14 -5
3 -9 12 -9 20 0 20 7 17 13 -6z m-16 -92 c-3 -8 -6 -5 -6 6 -1 11 2 17 5 13 3
-3 4 -12 1 -19z m13 -48 c0 -5 -4 -10 -10 -10 -5 0 -10 5 -10 10 0 6 5 10 10
10 6 0 10 -4 10 -10z m47 -77 c-3 -10 -5 -4 -5 12 0 17 2 24 5 18 2 -7 2 -21
0 -30z m-887 -28 c0 -8 -4 -15 -10 -15 -5 0 -10 7 -10 15 0 8 5 15 10 15 6 0
10 -7 10 -15z m1190 -59 c-12 -12 -23 30 -14 57 7 20 8 19 15 -13 4 -19 4 -39
-1 -44z m-1380 38 c0 -8 -4 -12 -10 -9 -5 3 -10 13 -10 21 0 8 5 12 10 9 6 -3
10 -13 10 -21z m188 -239 c-4 -5 -7 47 -6 116 l1 124 7 -115 c3 -63 3 -119 -2
-125z m-191 163 c-2 -13 -4 -5 -4 17 -1 22 1 32 4 23 2 -10 2 -28 0 -40z
m1535 -20 c-9 -9 -12 -7 -12 12 0 19 3 21 12 12 9 -9 9 -15 0 -24z m-1522 -59
c0 -11 -4 -18 -10 -14 -5 3 -7 12 -3 20 7 21 13 19 13 -6z m589 -27 c0 -24 -1
-25 -9 -7 -12 28 -12 47 0 40 6 -3 10 -18 9 -33z m-29 -7 c0 -13 6 -25 13 -28
17 -6 5 -16 -23 -19 -12 -2 -25 3 -27 10 -3 6 3 12 12 12 13 0 15 6 10 31 -5
22 -4 29 4 25 6 -4 11 -18 11 -31z m-50 -40 c0 -13 -4 -27 -10 -30 -6 -4 -10
8 -10 30 0 22 4 34 10 30 6 -3 10 -17 10 -30z m-513 -12 c-3 -10 -5 -4 -5 12
0 17 2 24 5 18 2 -7 2 -21 0 -30z m190 -65 c-3 -7 -5 -2 -5 12 0 14 2 19 5 13
2 -7 2 -19 0 -25z m1357 -14 c10 -26 7 -44 -8 -44 -9 0 -13 -8 -9 -22 4 -22 4
-23 -11 -4 -12 14 -13 22 -5 27 7 4 9 15 5 24 -7 18 0 35 14 35 4 0 11 -7 14
-16z m-2987 -176 c-3 -8 -6 -5 -6 6 -1 11 2 17 5 13 3 -3 4 -12 1 -19z m2053
-12 c0 -20 -40 -32 -51 -15 -15 23 -10 29 21 29 19 0 30 -5 30 -14z m50 -46
c25 -47 -45 -107 -76 -65 -14 19 -9 40 14 68 20 23 49 22 62 -3z m-109 -33
c-1 -12 -15 -9 -19 4 -3 6 1 10 8 8 6 -3 11 -8 11 -12z m-74 -1159 c-3 -8 -6
-5 -6 6 -1 11 2 17 5 13 3 -3 4 -12 1 -19z m10 -120 c-2 -18 -4 -4 -4 32 0 36
2 50 4 33 2 -18 2 -48 0 -65z"/>
<path d="M2884 2881 c3 -5 -12 -11 -34 -15 -59 -9 -49 -25 15 -25 48 1 55 4
55 21 0 10 -4 16 -10 13 -5 -3 -10 -1 -10 4 0 6 -5 11 -11 11 -5 0 -8 -4 -5
-9z"/>
<path d="M2930 2860 c0 -11 4 -20 9 -20 17 0 19 15 5 28 -12 11 -14 9 -14 -8z"/>
<path d="M2533 2838 c-34 -17 -28 -26 13 -19 21 3 36 11 36 16 -1 14 -23 16
-49 3z"/>
<path d="M3322 5860 c0 -14 2 -19 5 -12 2 6 2 18 0 25 -3 6 -5 1 -5 -13z"/>
<path d="M3305 5750 c-4 -6 -11 -8 -16 -5 -5 4 -9 2 -9 -3 0 -5 9 -12 20 -15
15 -4 20 0 20 14 0 21 -6 24 -15 9z"/>
<path d="M3332 5740 c0 -14 2 -19 5 -12 2 6 2 18 0 25 -3 6 -5 1 -5 -13z"/>
<path d="M3362 5740 c0 -14 2 -19 5 -12 2 6 2 18 0 25 -3 6 -5 1 -5 -13z"/>
<path d="M3186 5705 c4 -27 8 -52 10 -54 9 -10 3 76 -7 89 -7 11 -8 1 -3 -35z"/>
<path d="M3371 5614 c0 -11 3 -14 6 -6 3 7 2 16 -1 19 -3 4 -6 -2 -5 -13z"/>
<path d="M3210 5611 c0 -6 4 -13 10 -16 6 -3 7 1 4 9 -7 18 -14 21 -14 7z"/>
<path d="M3606 5611 c-4 -7 -5 -15 -2 -18 9 -9 19 4 14 18 -4 11 -6 11 -12 0z"/>
<path d="M3201 5564 c0 -11 3 -14 6 -6 3 7 2 16 -1 19 -3 4 -6 -2 -5 -13z"/>
<path d="M3212 5460 c0 -14 2 -19 5 -12 2 6 2 18 0 25 -3 6 -5 1 -5 -13z"/>
<path d="M3232 5420 c0 -14 2 -19 5 -12 2 6 2 18 0 25 -3 6 -5 1 -5 -13z"/>
<path d="M3041 5414 c0 -11 3 -14 6 -6 3 7 2 16 -1 19 -3 4 -6 -2 -5 -13z"/>
<path d="M3136 5353 c9 -38 14 -42 14 -10 0 14 -5 29 -10 32 -7 4 -8 -3 -4
-22z"/>
<path d="M3048 5315 c-2 -19 0 -35 4 -35 4 0 8 16 8 35 0 19 -2 35 -4 35 -2 0
-6 -16 -8 -35z"/>
<path d="M3072 5310 c0 -35 13 -77 20 -65 3 6 0 28 -7 50 -10 30 -13 34 -13
15z"/>
<path d="M3050 5232 c0 -22 4 -43 9 -46 5 -4 7 12 4 36 -8 57 -13 61 -13 10z"/>
<path d="M3191 5244 c0 -11 3 -14 6 -6 3 7 2 16 -1 19 -3 4 -6 -2 -5 -13z"/>
<path d="M3090 5188 c0 -16 5 -28 10 -28 13 0 13 20 0 40 -8 12 -10 9 -10 -12z"/>
<path d="M3122 5185 c0 -16 2 -22 5 -12 2 9 2 23 0 30 -3 6 -5 -1 -5 -18z"/>
<path d="M3242 5185 c0 -16 2 -22 5 -12 2 9 2 23 0 30 -3 6 -5 -1 -5 -18z"/>
<path d="M3188 5149 c-2 -22 0 -43 4 -45 4 -3 8 15 8 40 0 57 -7 60 -12 5z"/>
<path d="M3032 5140 c0 -14 2 -19 5 -12 2 6 2 18 0 25 -3 6 -5 1 -5 -13z"/>
<path d="M3050 5151 c0 -6 5 -13 10 -16 6 -3 10 1 10 9 0 9 -4 16 -10 16 -5 0
-10 -4 -10 -9z"/>
<path d="M3153 5100 c0 -36 2 -50 4 -32 2 17 2 47 0 65 -2 17 -4 3 -4 -33z"/>
<path d="M3171 5144 c0 -11 3 -14 6 -6 3 7 2 16 -1 19 -3 4 -6 -2 -5 -13z"/>
<path d="M3240 5136 c0 -8 4 -17 9 -20 5 -4 7 3 4 14 -6 23 -13 26 -13 6z"/>
<path d="M3180 5055 c0 -8 5 -15 10 -15 6 0 10 7 10 15 0 8 -4 15 -10 15 -5 0
-10 -7 -10 -15z"/>
<path d="M3098 5033 c7 -3 16 -2 19 1 4 3 -2 6 -13 5 -11 0 -14 -3 -6 -6z"/>
<path d="M3190 4960 c-13 -8 -12 -10 3 -10 9 0 17 5 17 10 0 12 -1 12 -20 0z"/>
<path d="M3672 4870 c0 -14 2 -19 5 -12 2 6 2 18 0 25 -3 6 -5 1 -5 -13z"/>
<path d="M3640 4834 c0 -8 5 -12 10 -9 6 3 10 10 10 16 0 5 -4 9 -10 9 -5 0
-10 -7 -10 -16z"/>
<path d="M3282 4820 c0 -14 2 -19 5 -12 2 6 2 18 0 25 -3 6 -5 1 -5 -13z"/>
<path d="M3281 4754 c0 -11 3 -14 6 -6 3 7 2 16 -1 19 -3 4 -6 -2 -5 -13z"/>
<path d="M3421 4544 c0 -11 3 -14 6 -6 3 7 2 16 -1 19 -3 4 -6 -2 -5 -13z"/>
<path d="M3298 4104 c-1 -31 0 -58 5 -61 4 -2 7 23 7 56 0 76 -7 79 -12 5z"/>
<path d="M3331 3984 c0 -11 3 -14 6 -6 3 7 2 16 -1 19 -3 4 -6 -2 -5 -13z"/>
<path d="M3392 3245 c0 -16 2 -22 5 -12 2 9 2 23 0 30 -3 6 -5 -1 -5 -18z"/>
<path d="M3201 3423 c-1 -19 21 -63 32 -63 5 0 5 6 -1 13 -6 7 -16 24 -21 38
-5 13 -10 19 -10 12z"/>
<path d="M3245 3261 c-3 -5 -1 -12 5 -16 5 -3 10 1 10 9 0 18 -6 21 -15 7z"/>
<path d="M3177 3195 c3 -27 7 -52 9 -54 7 -8 2 54 -6 79 -6 17 -7 9 -3 -25z"/>
<path d="M3090 3215 c0 -8 5 -15 10 -15 6 0 10 7 10 15 0 8 -4 15 -10 15 -5 0
-10 -7 -10 -15z"/>
<path d="M3120 3143 c0 -14 1 -24 3 -22 1 2 8 11 15 20 10 14 10 18 -3 23 -11
4 -15 -1 -15 -21z"/>
</g>
</svg>
